<svg xmlns="http://www.w3.org/2000/svg" viewBox="0 0 141.73 158.74"><defs><style>.cls-1{fill:#fff;}.cls-2{fill:#ef4136;}.cls-3{fill:#fee5d9;}</style></defs><title>logo50x56mm</title><g id="Layer_2" data-name="Layer 2"><g id="Layer_1-2" data-name="Layer 1"><path class="cls-1" d="M70.79,158.74,12.61,142.46,0,0H141.73L129.11,142.47Z"/><g id="svg3476"><g id="layer1"><g id="g3013"><path id="polygon2989" class="cls-2" d="M133.87,7.25,122.39,136.82l-51.6,14.4-51.46-14.4L7.86,7.25Z"/><path id="polygon2991" class="cls-3" d="M112.56,128.56l9.81-110.72H70.86V140.2Z"/></g></g></g><path class="cls-2" d="M86.5,51.76V82.31A15.54,15.54,0,0,1,70.87,98.06h-.2v17.53h.2a33.17,33.17,0,0,0,33-33.28V51.76Z"/><path class="cls-2" d="M95.31,46.19a8.13,8.13,0,0,0,8.29-8.32c0-4.47-3-7.85-8.14-7.85h-.15c-5.42,0-8.89,3.69-8.89,8.31C86.42,43.42,91.09,46.19,95.31,46.19Z"/><path class="cls-3" d="M55.24,82.31V51.76H37.84V82.31a33.15,33.15,0,0,0,32.83,33.27V98.05A15.53,15.53,0,0,1,55.24,82.31Z"/></g></g></svg>